<?xml version="1.0" encoding="UTF-8"?>
<svg id="Layer_1" data-name="Layer 1" xmlns="http://www.w3.org/2000/svg" viewBox="0 0 747.01 855.48">
  <defs>
    <style>
      .cls-1 {
        fill: #f7941d;
      }

      .cls-2 {
        fill: #231f20;
      }
    </style>
  </defs>
  <g id="Outline">
    <path class="cls-1" d="m549.24,267.21c-1.31-12.43-4.65-30.35-13.67-50.11-10.88-23.83-25.33-40.05-35.15-49.46-9-10.65-24.59-26.29-48.16-38.4-35.2-18.08-68.13-17.97-83.42-16.92-16.42.34-41.39,2.82-69.52,13.67-31.8,12.25-53.78,29.85-66.39,41.65-10.19,12.06-23.83,31.12-33.84,57.27-12.23,31.98-13.55,60.27-13.02,77.45,5.09,22.05,13.1,48.38,26.04,76.8,17.72,38.93,38.86,68.98,56.62,90.46,1.96,19.75,3.91,39.49,5.86,59.23h190.04c2.17-21.47,4.34-42.95,6.51-64.43,12.68-13.08,27.7-31.24,41.01-55.03,8.46-15.12,14.5-29.43,18.87-41.94,6.23-11,14.54-28.77,18.22-52.07,3.13-19.79,1.82-36.59,0-48.16h0Zm-34.17,57.28l-20.18,49.14-20.83,36.12-24.4,33.52c-3.04,3.91-6.07,7.82-9.11,11.72.15-3.72.29-7.44.43-11.17.21-3.94.43-7.88.65-11.83.77-1.17,1.86-2.59,3.36-4.02,1.81-1.71,3.6-2.84,4.99-3.58,1.28-.55,4.55-2.16,6.95-5.86,2.55-3.94,2.55-7.85,2.5-9.22.04-4.27.07-8.53.11-12.8.44-1.01,1.18-2.47,2.39-4.02.93-1.19,1.58-1.72,3.47-3.58,2.16-2.13,3.24-3.18,3.91-4.02.5-.63,2.35-2.99,3.58-6.62.87-2.56,1.14-4.87,1.19-6.62-.29-2.25-.93-4.03-1.52-5.31-.51-1.12-1.02-1.92-1.52-2.71-1.55-2.45-3.02-3.99-3.36-4.34-.82-.85-1.61-1.53-2.28-2.06-.81-.71-1.92-1.52-3.36-2.17-3.44-1.55-6.65-1.23-8.14-.98-2.1-.04-6.56.17-11.07,2.93-2.24,1.38-3.83,2.97-4.88,4.24-1.16,1.39-3.28,3.91-4.23,7.81-1.05,4.3-.14,7.93.43,9.65.74,2.03,1.91,4.6,3.8,7.27,2.88,4.09,6.19,6.65,8.46,8.14l.33,14.97c-1.19,2.61-2.39,5.21-3.58,7.82-.42.35-1.05.85-1.88,1.37-1.75,1.11-3.24,1.62-3.65,1.77-1.52.55-3.86,1.84-7.48,4.99-.85,2.36-1.74,5.48-2.17,9.22-.45,3.93-.26,7.32.07,9.88-.4.64-1.14,1.62-2.35,2.48-1.46,1.04-2.89,1.39-3.69,1.52-1.81-.25-4.21-.78-6.84-1.95-3.82-1.71-6.42-4.03-7.95-5.62-.68-.63-1.59-1.64-2.36-3.06-.99-1.85-1.22-3.46-1.52-5.64-.2-1.53-.37-3.65-.22-6.18.6-2.97.98-4.88.98-4.88h0s1.06-1.25,3.04-3.58c.71-1.22,1.93-3.72,1.95-7.05.02-1.95-.38-3.56-.76-4.66-.46-.97-1.66-3.19-4.23-4.88-2.42-1.6-4.78-1.89-5.86-1.96-3.96-.25-7.89,1.89-10.09,5.21-.71,1.07-2.19,3.71-1.84,7.16.06.64.36,3.03,2.06,5.31,1.4,1.88,2.71,2.3,3.8,3.26,1.66,1.47,3.17,4.52,2.17,11.61-.08,1.52-.09,3.19,0,4.99.09,1.94.29,3.72.54,5.31.31,1.25.96,3.17,2.39,5.1,1.03,1.39,2.31,2.6,4.55,4.02,4.49,2.83,9.31,4.25,12.69,4.99v44.58c-16.81-.07-33.62-.15-50.44-.22-.31-26-.63-51.99-.95-77.99,1.22-1.77,2.88-3.86,5.07-5.97,2.48-2.39,4.93-4.1,6.94-5.31,2.17-.77,5.75-2.38,9-5.75.59-.61,2.53-2.7,4.45-6.62,3.08-6.32,3.75-12.64,3.69-17.35.47-24.37.94-48.74,1.41-73.11.68-1.24,1.88-3.09,3.91-4.77,2.54-2.11,5.05-2.85,7.59-3.58,2.26-.64,5.81-1.38,10.3-1.19,5.67-1.51,9.41-3.99,11.5-5.64,2.91-2.29,3.82-3.92,4.23-4.77,1.5-3.12,1.14-6.16.87-7.59.32-11.13.65-22.27.97-33.41-.18-2.89-.25-6.09-.11-9.54.13-3.13.4-6.03.76-8.68,1.7-1.57,3.5-3.16,5.42-4.77,1.99-1.67,3.95-3.22,5.86-4.66,1.32-1.52,3.41-4.31,4.66-8.35,1.14-3.67,1.13-6.85.97-8.78.05-1.84-.07-4.19-.65-6.83-.9-4.05-2.52-7.12-3.8-9.11-1.01-1.52-2.51-3.41-4.66-5.21-3.73-3.12-7.57-4.41-9.87-4.99-1.67-.43-3.84-.82-6.4-.87-2.85-.06-5.26.34-7.05.76-2.15.49-4.91,1.32-7.92,2.82-3.05,1.51-5.41,3.24-7.1,4.67-1.31,1.58-3.11,3.95-4.94,7.04-.16.28-1.51,2.57-2.25,4.25-1.87,4.22-2.5,10.37-.57,16.26,3.15,9.59,11.46,13.54,12.86,14.18,3.49,1.68,6.97,3.35,10.46,5.02v49.14c-.23,1.19-.82,3.31-2.49,5.31-3.21,3.84-7.87,4.18-8.78,4.23-1.59.05-4.06.28-6.83,1.3-1.39.51-3.52,1.47-9.11,5.97-1.96,1.58-4.59,3.8-7.59,6.62-1.16-.91-2.31-1.81-3.47-2.71-.98-.91-2.13-1.87-3.47-2.82-1.94-1.38-3.81-2.39-5.42-3.15-4.18-.73-7.59-1.79-10.09-2.72-2.78-1.03-5.56-2.07-8.78-4.23-2.42-1.62-4.21-3.29-5.43-4.55-.07-2.28-.15-4.55-.21-6.83-.19-3.14-.28-6.51-.21-10.09.05-3,.2-5.85.42-8.54,2.46-1.09,5.69-2.89,8.8-5.88,1.31-1.26,2.38-2.52,3.26-3.69.43-1.08.9-2.6,1.08-4.45.23-2.21-.04-4.06-.32-5.31-.26-1.72-1.18-6.23-4.99-10.09-5.69-5.75-13.23-5.39-14.43-5.31-1.89.35-6.57,1.49-10.74,5.53-4.96,4.81-5.95,10.58-6.19,12.36.14,1.68.61,4.48,2.28,7.49,2.31,4.14,5.61,6.29,7.16,7.16-.17,4.13-.28,8.35-.32,12.69-.06,6.76.06,13.28.32,19.52,1.35,6.39,4.31,8.74,5.53,9.55.92.6,2.22,1.22,3.09,1.64,2.64,1.26,4.93,2.04,6.53,2.51,1.55.54,3.88,1.3,6.76,2.03,2.73.69,3.99.85,5.86,1.3,2.31.55,5.53,1.55,9.32,3.47v87.53c-1.8.98-3.64,1.96-5.53,2.93-2.2,1.14-4.37,2.22-6.51,3.26-2.18.63-5.39,1.83-8.78,4.23-.79.55-1.54,1.09-2.28,1.84-3.14,3.2-3.65,7.85-3.58,11.07.7,14.55.84,25.6.65,30.37-.05,1.21-.18,3.43-1.63,5.53-1.72,2.5-4.14,3.35-4.88,3.58-3.84-1.74-9.01-4.56-14.32-9.11-5.22-4.48-8.77-9.09-11.07-12.58-.27-3.5-.55-8.55-.56-14.73,0-4.4.13-8.27.13-8.27.21-5.96.51-7.27.46-11.93-.03-2.41-.15-6.09-.15-6.09,0,0,0,.14,0,.15,0,0-.2-4.3-.51-10.8.99-1.6,2.36-3.48,4.21-5.39,2.55-2.63,5.15-4.39,7.16-5.53,3.07-1.77,5.42-3.54,7.05-4.88,2.69-2.22,5.21-4.31,7.38-7.81,1.77-2.86,2.61-5.55,3.04-7.38,1.27-3.07,2.62-7.45,2.82-12.8.08-2.17-.04-4.16-.26-5.91,1.6-.7,5.14-2.52,7.96-6.45,2.98-4.17,3.47-8.35,3.58-10.09-.38-1.81-1.76-7.24-6.73-10.95-4.49-3.36-9.29-3.36-13.45-3.36-4.59,0-9.82,0-14.1,3.8-4.24,3.76-5.02,8.99-5.21,10.85-.02,1.48.12,6.05,3.36,10.41,3.65,4.92,8.75,6.21,10.09,6.51v11.28c-.36,1.66-1.52,5.98-5.42,9.54-2.61,2.38-5.34,3.43-6.94,3.91-2.03.86-4.77,2.17-7.81,4.12-4.26,2.73-7.07,5.41-9.11,7.38-2.02,1.94-4.54,4.6-7.16,8.03.16,1.99.97,12.73-.65,18.22-.5,1.7-1.18,2.7-2.17,3.26-2.1,1.2-4.22.06-4.34,0-4.56-4.56-9.11-9.11-13.66-13.66-.04-3.41-.02-6.29,0-8.46.07-7.26.31-12.86.43-15.4.15-3.13.31-5.74.43-7.59,3.65-2.68,6.81-5.03,9.33-6.94,7.01-5.31,8.67-6.76,10.2-9.11,2.32-3.59,3.02-7.22,3.26-9.54.31-2.02.6-5.82-.87-10.2-2.03-6.04-6.17-9.42-7.81-10.63-1.81-1.94-4.71-4.55-8.89-6.51-8.34-3.9-16.18-2.59-19.09-1.95-1.72.39-12.11,2.91-17.9,13.12-.76,1.33-4.97,9.05-2.93,18.76,1.28,6.09,4.41,10.04,6.29,12.36,5.32,6.57,11.77,9.56,15.19,10.85-.32,9.57.24,17.49.86,23.22,1.26,11.38,2.87,14.59,4.55,16.92,2.82,3.89,6.95,6.77,9.98,8.89,2.53,1.77,3.73,2.3,8.68,5.42,3.55,2.25,6.4,4.16,8.24,5.42.91,2,1.2,3.66,1.3,4.77.21,2.24-.27,2.96-.21,6.51.02,1.15.07,1.13.21,3.91.12,2.21.18,4.02.21,5.21,2.06,6.42,5.08,10.61,7.16,13.01,2.46,2.84,5.09,4.95,7.59,6.94,2.59,2.06,3.96,2.69,7.38,5.21,2.88,2.13,5.11,3.99,6.51,5.21.28,4.57.49,9.27.63,14.09.19,6.59.22,12.96.13,19.11h-17.68c-1.2-8.16-1.82-13.69-2.17-17.36-.13-1.36-.38-4.13-1.08-7.81-.59-3.05-1.25-5.52-1.74-7.16-.83-3.33-2-7.08-3.69-11.07-2.97-7.04-6.59-12.59-9.76-16.7-1.84-2.42-4.62-6.04-8.03-10.41-9.15-11.74-9.81-12.14-13.23-17.03-4.46-6.37-8.51-13.21-10.41-16.59-1.64-2.9-2.33-4.3-3.62-6.63-.82-1.47-1.43-2.53-1.59-2.81-1.82-3.19-4.95-9.08-7.81-14.86-1.57-3.17-5.62-11.51-10.41-23.21-3.55-8.67-6.01-14.67-8.03-21.26-6.23-20.36-5.71-38.01-5.21-51.42.44-11.79.75-19.82,3.47-30.48,5.56-21.8,16.57-36.1,24.73-46.86,12.2-16.08,25.67-27.51,37.09-35.47,9.15-5.78,21.91-12.56,38.07-17.57,20.42-6.33,37.74-7.2,47.72-7.16,12.18.05,29.26,1.52,48.49,7.81,7.98,2.61,21.79,7.23,37.2,17.9,15.85,10.96,25.14,22.61,32.22,31.56,11.82,14.94,19.33,29.31,24.08,40.35,2.69,10.48,5.06,22.96,6.19,37.09,1.6,20.15.19,37.67-1.96,51.42v.03Z"/>
    <path class="cls-1" d="m97.89,280.23h51.09c8.81,0,15.95,7.14,15.95,15.95h0c0,8.81-7.14,15.95-15.95,15.95h-51.09c-8.81,0-15.95-7.14-15.95-15.95h0c0-8.81,7.14-15.95,15.95-15.95Z"/>
    <path class="cls-1" d="m193.21,415.31l-42.45,28.42c-7.32,4.9-17.22,2.94-22.12-4.38h0c-4.9-7.32-2.94-17.22,4.38-22.12l42.45-28.42c7.32-4.9,17.22-2.94,22.12,4.38h0c4.9,7.32,2.94,17.22-4.38,22.12Z"/>
    <path class="cls-1" d="m167.09,202.03l-44.24-25.54c-7.63-4.4-10.24-14.16-5.84-21.78h0c4.4-7.63,14.16-10.24,21.78-5.84l44.24,25.54c7.63,4.4,10.24,14.16,5.84,21.78h0c-4.4,7.63-14.16,10.24-21.78,5.84Z"/>
    <path class="cls-1" d="m245.43,51.26l25.54,44.24c4.4,7.63,1.79,17.38-5.84,21.78h0c-7.63,4.4-17.38,1.79-21.78-5.84l-25.54-44.24c-4.4-7.63-1.79-17.38,5.84-21.78h0c7.63-4.4,17.38-1.79,21.78,5.84Z"/>
    <rect class="cls-1" x="350.82" y="0" width="31.89" height="82.98" rx="15.95" ry="15.95"/>
    <path class="cls-1" d="m641.76,305.61h-51.09c-8.81,0-15.95-7.14-15.95-15.95h0c0-8.81,7.14-15.95,15.95-15.95h51.09c8.81,0,15.95,7.14,15.95,15.95h0c0,8.81-7.14,15.95-15.95,15.95Z"/>
    <path class="cls-1" d="m564.12,382.3l42.45,28.42c7.32,4.9,9.28,14.8,4.38,22.12h0c-4.9,7.32-14.8,9.28-22.12,4.38l-42.45-28.42c-7.32-4.9-9.28-14.8-4.38-22.12h0c4.9-7.32,14.8-9.28,22.12-4.38Z"/>
    <path class="cls-1" d="m556.61,167.9l44.24-25.54c7.63-4.4,17.38-1.79,21.78,5.84h0c4.4,7.63,1.79,17.38-5.84,21.78l-44.24,25.54c-7.63,4.4-17.38,1.79-21.78-5.84h0c-4.4-7.63-1.79-17.38,5.84-21.78Z"/>
    <path class="cls-1" d="m521.83,60.69l-25.54,44.24c-4.4,7.63-14.16,10.24-21.78,5.84h0c-7.63-4.4-10.24-14.16-5.84-21.78l25.54-44.24c4.4-7.63,14.16-10.24,21.78-5.84h0c7.63,4.4,10.24,14.16,5.84,21.78Z"/>
  </g>
  <g id="Bulb">
    <path class="cls-2" d="m276.05,550.16h187.93s1.79-.32,1.95,2.6,0,10.57,0,10.57c-1.04-.16-3.34-.37-5.64.87-.68.37-1.23.79-1.66,1.19.01,4.49.02,8.97.04,13.46,2.16.06,4.31.11,6.47.17.29.63.58,1.26.87,1.9v8.3c-.38.43-.97,1-1.81,1.47-1.65.92-3.26.87-3.96.81-.54-.35-1.2-.37-1.68-.05-.43.28-.57.73-.6.87v12.2l1.54,1.54,6.5.73v4.88c-.86,2.6-2.56,6.6-5.93,10.57-4.48,5.29-9.6,7.82-12.36,8.95-2.62,1.64-6.27,3.59-10.9,5.05-4.58,1.44-8.65,1.96-11.72,2.11-1.25,2.18-2.98,4.74-5.37,7.32-1.36,1.46-2.7,2.7-3.96,3.73-2.19,1.14-4.38,2.29-6.56,3.43-25.19.05-50.37.11-75.55.16-2.56-1.26-5.54-2.99-8.62-5.37-4.51-3.47-7.73-7.14-9.93-10.09-3.93-.16-10.24-.91-17.25-4.07-5.95-2.68-10.19-6.1-12.85-8.62-2.98-5.21-5.97-10.41-8.95-15.62l6.02-3.91v-12.53l-3.91-2.11-4.23-.49v-11.07l7.65-2.44v-11.07l-6.99-2.76c.49-4.23.97-8.46,1.47-12.69h-.02Z"/>
  </g>
  <g>
    <path class="cls-1" d="m0,708.44h109.35v28.37H31.69v29.41h68.35v28.37H31.69v30.44h78.7v28.37H0v-144.98Z"/>
    <path class="cls-1" d="m200.89,708.44h31.89v115.98h72.28v29h-104.17v-144.98Z"/>
    <path class="cls-1" d="m378.79,707.4h29.41l62.13,146.01h-33.34l-13.25-32.52h-61.3l-13.26,32.52h-32.52l62.13-146.01Zm33.55,85.33l-19.26-47.01-19.26,47.01h38.52Z"/>
    <path class="cls-1" d="m492.69,708.44h67.31c16.57,0,29.62,4.56,37.9,12.84,6.63,6.63,9.94,14.71,9.94,24.65v.42c0,16.36-8.7,25.47-19.05,31.27,16.78,6.42,27.13,16.15,27.13,35.62v.41c0,26.51-21.54,39.76-54.26,39.76h-68.97v-144.98Zm83.46,42.87c0-9.53-7.46-14.91-20.92-14.91h-31.48v30.65h29.41c14.08,0,22.99-4.56,22.99-15.33v-.42Zm-15.53,42.25h-36.87v31.89h37.9c14.08,0,22.57-4.97,22.57-15.74v-.42c0-9.73-7.25-15.74-23.61-15.74Z"/>
    <path class="cls-1" d="m632.27,832.29l18.85-22.57c13.05,10.77,26.72,17.6,43.29,17.6,13.05,0,20.92-5.18,20.92-13.67v-.41c0-8.08-4.97-12.22-29.2-18.43-29.2-7.46-48.05-15.53-48.05-44.32v-.41c0-26.3,21.12-43.7,50.74-43.7,21.12,0,39.14,6.63,53.85,18.43l-16.57,24.03c-12.84-8.91-25.47-14.29-37.69-14.29s-18.64,5.59-18.64,12.63v.41c0,9.53,6.21,12.63,31.27,19.05,29.41,7.66,45.98,18.23,45.98,43.49v.41c0,28.79-21.95,44.94-53.23,44.94-21.95,0-44.11-7.66-61.51-23.2Z"/>
  </g>
</svg>