<?xml version="1.0" encoding="UTF-8"?>
<svg xmlns="http://www.w3.org/2000/svg" viewBox="0 0 1099.86 1605.43">
  <defs>
    <style>
      .cls-1 {
        font-family: JaapokkiRegular, JaapokkiRegular;
        font-size: 293.31px;
      }

      .cls-1, .cls-2 {
        fill: #f7941d;
      }

      .cls-3 {
        letter-spacing: -.03em;
      }

      .cls-4 {
        letter-spacing: -.02em;
      }

      .cls-5 {
        fill: #231f20;
      }
    </style>
  </defs>
  <g id="Outline">
    <path class="cls-2" d="m892.65,510.44c-2.51-23.75-8.88-57.98-26.12-95.72-20.78-45.53-48.38-76.5-67.14-94.48-17.19-20.34-46.98-50.23-92-73.36-67.24-34.54-130.14-34.33-159.35-32.33-31.37.65-79.07,5.39-132.81,26.12-60.74,23.41-102.73,57.02-126.82,79.57-19.46,23.04-45.53,59.44-64.64,109.4-23.37,61.09-25.89,115.13-24.87,147.95,9.72,42.12,25.03,92.41,49.74,146.7,33.85,74.37,74.23,131.76,108.16,172.81,3.74,37.72,7.46,75.43,11.19,113.14h363.03c4.15-41.02,8.29-82.05,12.43-123.07,24.22-24.99,52.91-59.67,78.34-105.13,16.16-28.88,27.7-56.21,36.05-80.12,11.91-21.02,27.77-54.95,34.81-99.46,5.97-37.8,3.48-69.89,0-92Zm-65.28,109.41l-38.54,93.87-39.79,68.99-46.61,64.03c-5.81,7.46-11.6,14.93-17.41,22.38.28-7.11.55-14.22.83-21.34.41-7.53.83-15.06,1.24-22.59,1.47-2.24,3.56-4.95,6.42-7.67,3.45-3.26,6.87-5.43,9.53-6.84,2.45-1.05,8.69-4.13,13.27-11.19,4.88-7.53,4.88-15,4.77-17.61.07-8.15.14-16.3.21-24.45.84-1.93,2.25-4.72,4.56-7.67,1.77-2.27,3.02-3.29,6.63-6.84,4.12-4.06,6.19-6.08,7.46-7.67.96-1.2,4.48-5.72,6.84-12.64,1.67-4.89,2.18-9.3,2.27-12.64-.56-4.29-1.77-7.69-2.9-10.15-.98-2.14-1.94-3.67-2.9-5.18-2.96-4.68-5.77-7.62-6.42-8.29-1.57-1.62-3.07-2.92-4.35-3.94-1.54-1.35-3.66-2.9-6.42-4.15-6.57-2.96-12.7-2.35-15.54-1.87-4.01-.07-12.53.33-21.14,5.59-4.28,2.63-7.31,5.67-9.32,8.09-2.21,2.66-6.26,7.46-8.08,14.92-2.01,8.21-.26,15.14.82,18.44,1.41,3.88,3.65,8.78,7.25,13.88,5.51,7.81,11.82,12.71,16.16,15.54l.63,28.59c-2.28,4.98-4.57,9.95-6.84,14.93-.8.66-2.01,1.62-3.59,2.62-3.35,2.12-6.18,3.1-6.98,3.39-2.9,1.06-7.38,3.51-14.29,9.53-1.63,4.5-3.33,10.47-4.15,17.62-.86,7.51-.5,13.98.14,18.88-.77,1.22-2.18,3.1-4.49,4.74-2.79,1.99-5.53,2.65-7.04,2.9-3.46-.48-8.04-1.49-13.06-3.73-7.29-3.26-12.27-7.69-15.18-10.74-1.29-1.21-3.04-3.13-4.5-5.84-1.9-3.53-2.34-6.61-2.9-10.77-.39-2.93-.71-6.97-.42-11.81,1.14-5.68,1.87-9.33,1.87-9.33h0s2.03-2.39,5.8-6.84c1.35-2.33,3.68-7.11,3.73-13.47.03-3.73-.73-6.8-1.45-8.91-.88-1.86-3.18-6.09-8.08-9.32-4.62-3.05-9.13-3.61-11.19-3.74-7.56-.48-15.07,3.61-19.27,9.95-1.36,2.05-4.18,7.09-3.52,13.68.12,1.23.69,5.79,3.94,10.15,2.67,3.59,5.18,4.39,7.25,6.22,3.17,2.8,6.06,8.63,4.15,22.17-.15,2.9-.17,6.1,0,9.53.18,3.7.56,7.1,1.04,10.15.6,2.39,1.84,6.05,4.56,9.74,1.96,2.65,4.42,4.97,8.7,7.67,8.57,5.4,17.79,8.12,24.24,9.54v85.16c-32.12-.14-64.23-.28-96.35-.42-.6-49.66-1.21-99.32-1.81-148.98,2.34-3.39,5.5-7.38,9.68-11.4,4.74-4.56,9.41-7.84,13.26-10.15,4.14-1.47,10.99-4.55,17.2-10.98,1.13-1.17,4.84-5.15,8.5-12.64,5.88-12.07,7.16-24.14,7.05-33.15.9-46.55,1.8-93.11,2.69-139.66,1.29-2.37,3.6-5.91,7.46-9.12,4.85-4.03,9.64-5.45,14.5-6.84,4.32-1.23,11.1-2.64,19.68-2.28,10.83-2.89,17.98-7.63,21.96-10.77,5.55-4.37,7.3-7.49,8.08-9.12,2.86-5.96,2.17-11.77,1.66-14.5.62-21.27,1.24-42.55,1.86-63.82-.35-5.53-.47-11.64-.21-18.23.24-5.98.77-11.52,1.45-16.58,3.24-2.99,6.69-6.04,10.36-9.12,3.81-3.19,7.55-6.16,11.19-8.91,2.52-2.9,6.51-8.23,8.91-15.96,2.18-7.01,2.16-13.08,1.86-16.78.1-3.52-.13-8-1.24-13.05-1.71-7.73-4.82-13.61-7.25-17.41-1.93-2.9-4.79-6.51-8.91-9.95-7.13-5.96-14.47-8.43-18.86-9.53-3.19-.82-7.34-1.57-12.23-1.66-5.44-.11-10.04.64-13.47,1.45-4.11.93-9.38,2.53-15.12,5.38-5.82,2.89-10.33,6.18-13.57,8.92-2.5,3.02-5.95,7.54-9.43,13.45-.31.53-2.88,4.91-4.3,8.11-3.57,8.07-4.78,19.81-1.09,31.06,6.01,18.32,21.9,25.87,24.57,27.09,6.66,3.2,13.32,6.39,19.98,9.59v93.87c-.44,2.27-1.56,6.32-4.76,10.15-6.14,7.34-15.03,7.99-16.78,8.08-3.04.09-7.75.54-13.05,2.49-2.65.98-6.73,2.8-17.41,11.4-3.74,3.02-8.77,7.25-14.5,12.64-2.21-1.73-4.42-3.45-6.63-5.18-1.87-1.74-4.07-3.57-6.63-5.39-3.71-2.63-7.27-4.57-10.36-6.01-7.98-1.4-14.49-3.42-19.28-5.19-5.32-1.96-10.63-3.95-16.77-8.08-4.62-3.1-8.05-6.29-10.37-8.7-.14-4.35-.28-8.7-.41-13.05-.36-6-.53-12.44-.41-19.27.1-5.74.39-11.18.81-16.32,4.69-2.08,10.86-5.52,16.81-11.24,2.5-2.4,4.55-4.81,6.22-7.05.82-2.07,1.72-4.96,2.07-8.5.43-4.23-.08-7.76-.62-10.15-.5-3.29-2.26-11.91-9.53-19.27-10.87-10.99-25.27-10.3-27.56-10.15-3.61.67-12.55,2.85-20.51,10.56-9.47,9.19-11.37,20.21-11.82,23.62.27,3.21,1.16,8.56,4.35,14.3,4.41,7.91,10.72,12.01,13.67,13.67-.33,7.88-.54,15.96-.62,24.25-.12,12.92.12,25.36.62,37.29,2.58,12.2,8.23,16.7,10.57,18.24,1.76,1.15,4.25,2.34,5.9,3.13,5.05,2.4,9.42,3.89,12.47,4.8,2.97,1.04,7.41,2.49,12.92,3.88,5.21,1.31,7.63,1.63,11.19,2.49,4.41,1.06,10.56,2.96,17.81,6.63v167.21c-3.43,1.87-6.95,3.74-10.56,5.59-4.2,2.18-8.35,4.25-12.43,6.22-4.17,1.21-10.3,3.5-16.78,8.08-1.5,1.06-2.94,2.08-4.35,3.52-5.99,6.11-6.97,14.99-6.84,21.14,1.33,27.8,1.61,48.9,1.24,58.02-.09,2.31-.35,6.55-3.11,10.56-3.29,4.78-7.9,6.4-9.32,6.84-7.34-3.32-17.22-8.71-27.35-17.4-9.98-8.56-16.76-17.36-21.14-24.04-.51-6.68-1.06-16.34-1.07-28.13-.01-8.41.24-15.8.24-15.8.4-11.38.97-13.88.87-22.79-.05-4.6-.29-11.63-.28-11.63,0,0,.01.27.01.28,0,0-.39-8.21-.98-20.63,1.9-3.05,4.51-6.65,8.04-10.29,4.88-5.03,9.83-8.38,13.67-10.56,5.87-3.38,10.36-6.76,13.47-9.33,5.14-4.25,9.96-8.23,14.09-14.92,3.38-5.47,4.98-10.61,5.8-14.09,2.42-5.86,5-14.23,5.39-24.45.16-4.15-.07-7.94-.49-11.28,3.06-1.34,9.82-4.81,15.21-12.33,5.7-7.96,6.63-15.96,6.84-19.28-.73-3.45-3.37-13.83-12.85-20.92-8.57-6.42-17.75-6.42-25.7-6.42-8.77,0-18.75,0-26.93,7.25-8.1,7.18-9.59,17.17-9.95,20.72-.03,2.83.23,11.56,6.42,19.89,6.98,9.4,16.72,11.87,19.27,12.43,0,7.18,0,14.37,0,21.55-.68,3.18-2.9,11.42-10.36,18.23-4.98,4.55-10.2,6.55-13.26,7.46-3.87,1.64-9.11,4.15-14.92,7.87-8.13,5.22-13.51,10.34-17.41,14.09-3.85,3.71-8.67,8.79-13.68,15.33.3,3.81,1.86,24.32-1.24,34.81-.96,3.25-2.26,5.15-4.14,6.22-4.01,2.29-8.07.12-8.29,0-8.71-8.71-17.4-17.41-26.1-26.1-.07-6.52-.04-12.02,0-16.17.14-13.87.6-24.57.83-29.42.28-5.98.59-10.97.83-14.5,6.98-5.11,13-9.61,17.82-13.26,13.4-10.14,16.57-12.91,19.48-17.41,4.44-6.86,5.76-13.8,6.22-18.23.59-3.85,1.15-11.12-1.66-19.48-3.88-11.53-11.78-18-14.92-20.31-3.45-3.71-9-8.7-16.99-12.43-15.93-7.45-30.91-4.95-36.47-3.73-3.28.74-23.13,5.56-34.19,25.07-1.45,2.55-9.5,17.29-5.59,35.84,2.45,11.63,8.42,19.18,12.02,23.62,10.16,12.55,22.48,18.26,29.01,20.72-.62,18.29.45,33.41,1.65,44.35,2.4,21.73,5.48,27.88,8.7,32.32,5.39,7.43,13.27,12.94,19.06,16.99,4.84,3.39,7.13,4.39,16.58,10.36,6.79,4.29,12.22,7.94,15.75,10.36,1.73,3.83,2.29,7,2.49,9.12.4,4.28-.52,5.66-.41,12.43.03,2.19.13,2.16.41,7.46.23,4.22.35,7.67.41,9.95,3.93,12.27,9.71,20.27,13.68,24.86,4.69,5.43,9.73,9.45,14.5,13.26,4.94,3.94,7.56,5.13,14.09,9.95,5.5,4.06,9.76,7.63,12.43,9.95.53,8.73.94,17.71,1.21,26.91.36,12.58.42,24.76.24,36.5h-33.78c-2.29-15.59-3.48-26.16-4.14-33.16-.25-2.59-.72-7.88-2.07-14.92-1.12-5.82-2.39-10.54-3.32-13.68-1.59-6.37-3.83-13.52-7.05-21.14-5.68-13.44-12.58-24.05-18.65-31.91-3.52-4.62-8.82-11.54-15.33-19.89-17.48-22.42-18.73-23.19-25.28-32.54-8.52-12.17-16.25-25.24-19.89-31.7-3.13-5.54-4.46-8.22-6.92-12.66-1.56-2.81-2.73-4.84-3.03-5.37-3.47-6.1-9.46-17.35-14.92-28.39-2.99-6.05-10.73-21.98-19.89-44.34-6.78-16.56-11.48-28.03-15.33-40.61-11.91-38.89-10.91-72.6-9.95-98.22.85-22.53,1.43-37.86,6.63-58.23,10.63-41.64,31.65-68.96,47.25-89.51,23.31-30.72,49.04-52.55,70.86-67.75,17.47-11.05,41.86-24,72.73-33.57,39-12.09,72.1-13.75,91.16-13.67,23.26.09,55.89,2.91,92.63,14.92,15.25,4.98,41.62,13.82,71.07,34.19,30.27,20.94,48.02,43.2,61.54,60.29,22.58,28.53,36.92,55.99,46,77.08,5.13,20.02,9.66,43.85,11.82,70.86,3.06,38.5.37,71.96-3.74,98.22Z"/>
    <rect class="cls-2" x="0" y="535.31" width="158.51" height="60.92" rx="30.46" ry="30.46"/>
    <rect class="cls-2" x="75.84" y="764.69" width="158.51" height="60.92" rx="30.46" ry="30.46" transform="translate(726.28 1369.66) rotate(146.2)"/>
    <rect class="cls-2" x="56.38" y="304.69" width="158.51" height="60.92" rx="30.46" ry="30.46" transform="translate(85.52 693.22) rotate(-150)"/>
    <rect class="cls-2" x="231.07" y="124.94" width="158.51" height="60.92" rx="30.46" ry="30.46" transform="translate(289.74 -191.05) rotate(60)"/>
    <rect class="cls-2" x="464.82" y="48.8" width="158.51" height="60.92" rx="30.46" ry="30.46" transform="translate(623.34 -464.82) rotate(90)"/>
    <rect class="cls-2" x="941.34" y="522.88" width="158.51" height="60.92" rx="30.46" ry="30.46" transform="translate(2041.2 1106.68) rotate(180)"/>
    <rect class="cls-2" x="865.51" y="752.26" width="158.51" height="60.92" rx="30.46" ry="30.46" transform="translate(595.03 -393.26) rotate(33.8)"/>
    <rect class="cls-2" x="884.97" y="292.26" width="158.51" height="60.92" rx="30.46" ry="30.46" transform="translate(-32.18 525.35) rotate(-30)"/>
    <rect class="cls-2" x="710.27" y="112.51" width="158.51" height="60.92" rx="30.46" ry="30.46" transform="translate(1308.1 -469.3) rotate(120)"/>
  </g>
  <g id="Bulb">
    <path class="cls-5" d="m370.8,1050.95h358.99s3.42-.62,3.73,4.97c.31,5.59,0,20.2,0,20.2-1.98-.31-6.38-.71-10.77,1.66-1.3.7-2.35,1.5-3.18,2.27.02,8.57.04,17.14.07,25.71,4.12.11,8.24.21,12.36.32.55,1.21,1.11,2.41,1.66,3.62v15.85c-.73.83-1.85,1.91-3.45,2.8-3.16,1.75-6.22,1.67-7.56,1.55-1.03-.67-2.29-.71-3.21-.1-.82.54-1.08,1.4-1.14,1.66v23.31l2.95,2.95,12.42,1.4v9.32c-1.65,4.97-4.89,12.6-11.33,20.2-8.55,10.1-18.34,14.94-23.62,17.09-5,3.14-11.98,6.85-20.82,9.64-8.75,2.76-16.52,3.74-22.38,4.04-2.38,4.16-5.69,9.05-10.26,13.99-2.59,2.79-5.16,5.15-7.56,7.12-4.18,2.18-8.36,4.37-12.53,6.55-48.11.1-96.21.21-144.32.31-4.89-2.41-10.58-5.72-16.47-10.26-8.62-6.63-14.77-13.64-18.96-19.27-7.51-.31-19.57-1.74-32.95-7.77-11.36-5.12-19.47-11.66-24.55-16.47-5.7-9.95-11.4-19.89-17.09-29.84l11.5-7.46v-23.93l-7.46-4.04-8.08-.93v-21.14l14.61-4.66v-21.14l-13.36-5.28c.93-8.08,1.86-16.16,2.8-24.24Z"/>
  </g>
  <g id="Text">
    <text class="cls-1" transform="translate(51.88 1490.75)"><tspan x="0" y="0">E </tspan><tspan class="cls-4" x="263.09" y="0">L</tspan><tspan class="cls-3" x="412.97" y="0">A</tspan><tspan x="638.53" y="0">BS</tspan></text>
  </g>
</svg>