<?xml version="1.0" encoding="utf-8"?>
<!-- Generator: Adobe Illustrator 25.2.0, SVG Export Plug-In . SVG Version: 6.00 Build 0)  -->
<svg version="1.1" id="Layer_1" xmlns="http://www.w3.org/2000/svg" xmlns:xlink="http://www.w3.org/1999/xlink" x="0px" y="0px"
	 viewBox="0 0 1536 1040" style="enable-background:new 0 0 1536 1040;" xml:space="preserve">
<style type="text/css">
	.st0{fill:#FEFEFE;}
	.st1{fill:#F1A23B;}
	.st2{fill:#F0A13B;}
	.st3{fill:#F0A23D;}
	.st4{fill:#F0A23B;}
	.st5{fill:#F0A23C;}
	.st6{fill:#464646;}
	.st7{fill:#F0C68F;}
	.st8{fill:#DEBC90;}
	.st9{fill:#DEBD93;}
	.st10{fill:#DCBC90;}
	.st11{fill:#DFC4A2;}
	.st12{fill:#AEA6A4;}
</style>
<g>
	<g>
		<path class="st0" d="M549.07,520c0-81.98,0.02-163.96-0.07-245.93c0-2.56,0.5-3.07,3.07-3.07c143.95,0.08,287.91,0.08,431.86,0
			c2.57,0,3.07,0.5,3.07,3.07c-0.08,163.96-0.08,327.91,0,491.87c0,2.56-0.5,3.07-3.07,3.07c-143.95-0.08-287.91-0.08-431.86,0
			c-2.57,0-3.07-0.5-3.07-3.07C549.09,683.96,549.07,601.98,549.07,520z"/>
		<path class="st1" d="M662.3,583.25c-6.38-11.96-13.06-23.77-19.07-35.91c-7.66-15.47-11.53-32.17-12.72-49.23
			c-0.69-9.95,0.22-20.18,1.72-30.08c2.31-15.2,7.08-29.77,14.64-43.32c7.37-13.2,16.76-24.68,28.48-34.28
			c12.93-10.58,27.06-19.07,42.77-24.86c19.22-7.09,39.02-9.92,59.51-8.74c19.52,1.12,37.83,6.72,55.23,15
			c16.15,7.68,29.67,19.08,41.45,32.6c9.36,10.74,16.37,22.82,22.19,35.69c5.13,11.35,7.68,23.31,8.71,35.72
			c1.1,13.24,1.18,26.44-1.72,39.38c-2.09,9.31-4.83,18.61-8.54,27.39c-5.23,12.34-11.62,24.18-17.54,36.23
			c-0.38,0.77-0.96,1.45-1.45,2.17c-5.55,8.83-11.38,17.47-17.64,25.81c-3.8,5.06-8.35,9.59-11.07,15.39
			c-3.77,8.04-6.46,16.34-6.2,25.42c0.21,7.35-0.03,14.71,0.08,22.06c0.04,2.88-0.97,4.35-3.97,4.69c-2.23,0.25-4.43,0.59-6.68,0.59
			c-40.2-0.02-80.4-0.01-120.59-0.01c-3.37,0-6.71-0.36-10.05-0.71c-2.9-0.31-4.01-1.93-4.2-4.7c-0.39-5.87,0.94-11.63,0.83-17.49
			c-0.19-10.3-1.44-20.28-6.28-29.62c-1.86-3.58-4.27-6.77-6.68-9.86C676.07,603.05,668.92,593.35,662.3,583.25z"/>
		<path class="st2" d="M778.44,304.01c0,6.73,0.29,13.48-0.08,20.2c-0.42,7.62-6.32,12.57-13.41,11.87
			c-4.99-0.49-10.51-5.76-10.69-11.95c-0.39-13.32-0.15-26.66,0.2-39.98c0.13-5.04,3.35-8.79,8.05-10.23
			c5.14-1.58,9.99,0.01,13.48,4.21c1.25,1.51,2.17,3.74,2.25,5.69c0.27,6.72,0.1,13.46,0.1,20.2
			C778.39,304.01,778.41,304.01,778.44,304.01z"/>
		<path class="st3" d="M953.24,479.22c6.36,0,12.73-0.25,19.08,0.07c7.01,0.34,12.79,6.57,12.5,12.89
			c-0.27,5.84-5.82,11.3-12.72,11.46c-12.59,0.3-25.21,0.48-37.79-0.04c-9.9-0.41-15.29-9.83-10.92-18.09
			c2.48-4.68,6.87-6.3,11.88-6.39c5.99-0.1,11.97-0.02,17.96-0.02C953.24,479.15,953.24,479.18,953.24,479.22z"/>
		<path class="st4" d="M595.54,610.35c-5.74-0.84-9.39-3.13-10.96-7.44c-2.2-6.03-1.51-10.89,3-14.18
			c11.26-8.21,22.7-16.18,34.2-24.05c3.4-2.32,10.55-0.98,13.65,1.97c3.8,3.62,4.53,8.89,2.24,13.67
			c-3.23,6.75-9.87,9.63-15.39,13.74c-5.88,4.37-11.95,8.51-18.13,12.45C601.53,608.19,598.42,609.1,595.54,610.35z"/>
		<path class="st5" d="M901.57,410.28c0.23-5.2,2.68-8.55,6.55-10.86c11.03-6.57,22.09-13.08,33.28-19.39
			c6.14-3.46,13.52-1.23,16.89,4.67c3.34,5.84,1.32,12.92-5.43,16.97c-10.47,6.28-21.09,12.3-31.77,18.22
			c-5.41,3-11.98,2.03-16.17-2.51C903.22,415.54,902.65,412.68,901.57,410.28z"/>
		<path class="st5" d="M588.65,383.46c2.59,1.04,5.34,1.8,7.75,3.16c10.5,5.95,21,11.89,31.3,18.18c7.73,4.72,7.9,16.04,0.48,20.23
			c-5.45,3.07-10.94,1.85-16.02-1.03c-9.74-5.51-19.41-11.15-28.99-16.92c-6.78-4.08-9.07-10.73-5.99-16.4
			C579.7,386.04,583.08,384.04,588.65,383.46z"/>
		<path class="st5" d="M692.4,351.05c-0.03,7-3.55,12.03-8.58,13.34c-4.86,1.26-11.61-1.67-14.19-6.85
			c-5.61-11.26-11.22-22.55-16.17-34.12c-4.16-9.71,1.99-18.52,11.87-17.81c4.44,0.32,7.82,2.63,9.73,6.64
			c5.61,11.8,11.11,23.65,16.57,35.52C692.23,349.07,692.3,350.63,692.4,351.05z"/>
		<path class="st4" d="M940.21,604.23c-5.49,0.54-9.36-3.52-13.6-6.35c-8.17-5.45-16.09-11.3-23.99-17.14
			c-4.91-3.63-6.4-8.92-5.38-14.62c1.22-6.77,12.03-10.18,18.28-5.87c10.75,7.41,21.4,14.97,32.03,22.54
			c4.4,3.13,5.8,7.82,4.12,12.84C949.68,601.59,946.23,604.26,940.21,604.23z"/>
		<path class="st4" d="M842.79,346.69c1.24-3.18,2.33-6.43,3.76-9.53c4.62-10.05,9.22-20.12,14.12-30.03
			c2.8-5.65,7.7-7.81,13.27-6.61c7.73,1.67,11.93,9.08,8.62,16.72c-5.2,11.98-10.94,23.73-16.75,35.44
			c-2.31,4.66-9.19,7.39-13.7,6.16C846.18,357.23,843.51,353.55,842.79,346.69z"/>
		<path class="st4" d="M582.68,508.53c-6.5,0-12.99,0.05-19.49-0.02c-5.92-0.06-10.64-3.7-12.18-9.24
			c-1.17-4.23,1.06-8.72,5.66-12.05c2.74-1.98,5.56-2.93,9-2.88c11.36,0.17,22.74-0.12,34.1,0.19c3.1,0.08,6.47,1.09,9.17,2.62
			c4.56,2.59,5.87,7.06,4.39,11.94c-2.06,6.83-4.87,9.35-10.81,9.42C595.92,508.6,589.3,508.53,582.68,508.53z"/>
		<path class="st6" d="M731.95,687.65c33.84,0,67.67,0,101.51,0c1.5,0,3,0.03,4.5,0.03c3.25,0,4.41,1.91,4.31,4.84
			c-0.09,2.65,1.29,6.14-3.47,6.29c-2.35,0.07-3.48,1.51-3.14,3.71c0.45,2.89-0.76,6.76,4.35,7.27c0.89,0.09,2.06,3.12,2.05,4.78
			c-0.01,1.64-1.03,4.38-2.16,4.71c-3.02,0.87-4.09,2.3-3.82,5.31c0.24,2.66-0.59,5.53,3.46,6.32c2.9,0.56,2.07,2.88,1.34,4.81
			c-3.52,9.26-10.69,14.44-19.74,17.43c-2.01,0.66-4.21,0.81-6.14,1.62c-2.12,0.9-4.6,1.85-5.94,3.56
			c-4.92,6.28-11.45,8.54-19.04,8.56c-14.11,0.04-28.23,0.09-42.34-0.03c-6.12-0.05-11.62-2.14-15.59-6.91
			c-3.09-3.71-6.92-5.24-11.52-6.15c-10.3-2.03-17.95-7.69-22.23-17.55c-1.12-2.58-1.16-4.44,1.65-5.87
			c3.23-1.64,2.38-4.82,1.95-7.32c-0.24-1.39-2.3-2.42-3.41-3.72c-0.93-1.08-2.23-2.25-2.37-3.5c-0.25-2.18-1.04-5.31,2.18-5.97
			c5.29-1.09,3.05-5.29,3.53-8.15c0.16-0.91-2.07-2.65-3.52-3.33c-3.6-1.69-2.18-4.64-2.07-7.17c0.1-2.53,1.91-3.11,4.22-3.1
			c10.49,0.06,20.98,0.03,31.47,0.03C731.95,687.98,731.95,687.82,731.95,687.65z"/>
		<path class="st7" d="M662.3,583.25c3.09,4.16,6.18,8.32,9.28,12.47c5.35,7.16,10.88,14.19,16.02,21.49
			c4.72,6.7,7.98,14.2,8.37,22.43c0.44,9.4,0.11,18.84,0.13,28.26c0.01,4.84,1,5.95,5.94,5.97c43.3,0.23,86.6,0.43,129.89,0.59
			c1.72,0.01,3.44-0.52,5.17-0.62c2.72-0.16,3.63-1.64,3.61-4.18c-0.06-6.86,0.16-13.72-0.06-20.57
			c-0.5-15.2,5.23-27.92,14.51-39.63c6.47-8.16,12.12-16.95,18.18-25.44c0.77-1.08,1.75-2.03,2.63-3.03
			c-3.88,6.18-7.54,12.52-11.7,18.51c-4.18,6.02-9.12,11.51-13.26,17.56c-5.65,8.26-8.98,17.53-9.4,27.56
			c-0.35,8.21-0.17,16.46,0.05,24.68c0.1,3.61-1.27,5.41-4.8,5.67c-1.49,0.11-2.98,0.3-4.47,0.3c-42.58,0.02-85.16,0.09-127.74-0.04
			c-10.34-0.03-9.38-1.47-9.37-9.18c0.01-8.07,0.3-16.15-0.09-24.19c-0.45-9.29-3.93-17.63-9.41-25.16
			c-7.61-10.46-15.15-20.96-22.69-31.46C662.69,584.69,662.56,583.92,662.3,583.25z"/>
		<path class="st8" d="M672.02,510.64c-2.3,5.31-4.31,10.82-0.8,16.21c2.45,3.75,5.27,7.51,8.7,10.31c4.19,3.41,6.77,6.9,6.45,12.56
			c-0.24,4.31,0.34,8.68,0.78,13c0.8,7.97,5.9,12.78,12.5,16.37c2.84,1.54,6.05,2.56,8.53,4.53c1.51,1.19,2.35,3.66,2.75,5.7
			c0.61,3.14,0.53,6.42,0.82,9.63c0.63,7.13,4.38,12.44,9.99,16.56c2.9,2.14,6.1,3.89,8.91,6.13c1.26,1,2.57,2.7,2.73,4.19
			c0.76,7.41,1.07,14.86,1.69,22.28c0.21,2.56-1,3.98-3.04,5c-7.16,3.59-14.37-0.24-15.04-8.03c-1.08-12.77-3.89-25.1-10.79-36.02
			c-4.44-7.02-9.72-13.51-14.7-20.18c-8.57-11.46-16.58-23.28-22.42-36.38c-4.45-9.96-9.18-19.92-12.25-30.34
			c-2.6-8.83-3.75-18.28-4.16-27.51c-0.56-12.51-1.01-25.13,2.71-37.46c2.7-8.95,6.33-17.35,11.04-25.44
			c8.39-14.39,19.81-25.66,33.45-35.04c9.81-6.76,20.29-12.36,31.54-15.75c16.75-5.05,34.02-7.24,51.55-3.76
			c6.93,1.37,13.99,2.22,20.77,4.11c10.59,2.94,20.49,7.66,29.32,14.28c6.44,4.82,12.8,9.8,18.82,15.13
			c7.63,6.76,12.98,15.29,18.11,24.05c6.58,11.22,11.18,23.24,12.29,36.02c0.96,11.09,0.47,22.44-0.76,33.52
			c-1.03,9.28-3.42,18.56-6.4,27.44c-2.67,7.95-6.72,15.49-10.64,22.96c-4.6,8.76-9.34,17.5-14.73,25.77
			c-6.44,9.88-13.69,19.23-20.47,28.89c-1.41,2.01-2.19,4.46-3.58,6.5c-0.66,0.97-2.07,1.44-3.13,2.14
			c-0.68-1.05-1.98-2.13-1.93-3.15c0.3-5.7,0.76-11.4,1.59-17.04c0.19-1.27,1.94-2.42,3.15-3.39c1.45-1.15,3.14-1.99,4.66-3.06
			c3.76-2.67,5.25-6.17,4.87-10.91c-0.51-6.29,1.08-11.87,6.39-16.23c4.41-3.62,5.42-9.02,3.7-14.19c-0.83-2.51-3.49-5.23-5.98-6.22
			c-7.89-3.15-17.07-0.31-20.22,8.56c-1.25,3.53-0.19,6.9,2.01,9.81c1.12,1.48,2.6,2.69,3.96,3.98c6.34,6.02,6.34,17.09-0.06,22.97
			c-0.78,0.72-1.82,1.28-2.83,1.62c-4.49,1.5-7.23,5.03-7.33,9.68c-0.03,1.25-0.1,2.5,0,3.74c0.65,7.93-4.56,10.45-11.81,7.28
			c-11.49-5.02-13.94-14.43-7.31-25.35c1.37-2.25,3.14-5.05,0.91-7.18c-1.76-1.68-4.87-3.02-7.16-2.74
			c-2.05,0.25-4.53,2.61-5.43,4.65c-0.64,1.45,0.45,4.49,1.77,5.81c2.75,2.73,3.89,5.63,3.5,9.37c-0.17,1.6-0.07,3.24-0.01,4.86
			c0.22,5.68,2.04,10.14,8.31,11.66c8.74,2.11,7.48,3.77,8,12.29c0.43,7.13-0.34,14.33-0.6,21.5c-0.2,5.47-1.3,6.55-6.64,6.55
			c-9.62,0-19.24,0.01-28.86,0.01c-5.48,0-6.45-0.99-6.45-6.62c0-16.59,0.36-33.2-0.16-49.78c-0.24-7.58,3.76-11.33,9.33-14.69
			c2.52-1.52,5.06-3.07,7.33-4.93c3.91-3.22,5.52-7.53,5.31-12.6c-0.06-1.42,0.43-2.86,0.66-4.3c2.09,3.11,0.69,6.59,1.05,9.88
			c-0.81,5.33-4.46,8.71-8.43,11.72c-2.58,1.95-5.61,3.25-8.23,5.18c-2.9,2.14-4.4,4.81-4.37,8.58c0.11,16.34,0.02,32.68,0.06,49.02
			c0.01,4.94,1.06,5.99,5.92,6.02c8.49,0.05,16.99,0.04,25.48,0.01c4.3-0.02,4.28-0.17,4.88-4.27c1.19-8.2,0.44-16.44,0.64-24.65
			c0.08-3.09-1.48-5.16-4.41-5.64c-7.91-1.3-11.98-9-12.01-16.79c-0.02-4.58-0.44-8.62-3.71-12.45c-3.68-4.3-1.04-9.62,3.5-12.19
			c3.63-2.06,9.04-1.15,11.9,1.62c2.54,2.46,3.08,6.23,0.93,10.41c-2.03,3.96-3.62,7.84-3.16,12.44
			c0.55,5.55,5.39,10.58,10.96,10.98c3.22,0.23,5.28-1.41,5.68-4.59c0.2-1.61,0.04-3.24,0.12-4.86c0.26-5.33,2.74-9.18,7.58-11.55
			c7.12-3.49,9.1-14.59,3.68-20.42c-1.36-1.46-2.87-2.78-4.18-4.29c-4.39-5-4.51-11.95-0.27-17.03c4.3-5.15,9.39-8.44,16.56-7.43
			c12.2,1.73,15.85,13.1,10.78,22.51c-0.59,1.09-1.3,2.2-2.25,2.98c-5.02,4.13-6.56,9.53-5.89,15.73c0.69,6.41-3.04,10.63-7.77,13.5
			c-5.5,3.33-6.45,8.09-6.47,13.62c0,1.62-0.12,3.23-0.05,4.91c4.17-7.5,10.28-13.53,14.82-20.68c3.79-5.97,7.25-12.23,11.63-17.72
			c6.96-8.73,10.84-19.02,15.81-28.72c7.51-14.67,12.81-30.13,13.63-46.91c0.49-10.1,1.08-20.13-0.27-30.21
			c-1.71-12.75-7.02-24.04-13.43-35.02c-4.88-8.35-10.73-15.64-17.55-22.59c-10.96-11.18-24.13-18.3-38.15-24.27
			c-19.19-8.17-39.22-10.07-59.79-7.18c-11.81,1.66-22.85,5.44-33.7,10.51c-12.53,5.86-22.98,14.33-33.16,23.3
			c-6.94,6.12-10.92,14.46-15.86,22.06c-6.21,9.57-9.46,20.24-11.44,31.37c-0.42,2.33-0.86,4.66-1.54,6.94
			c-0.65,7.33-0.55,14.66-0.05,21.98c1.92,11.81,3.05,23.91,7.79,34.95c5.54,12.9,10.77,26,18.53,37.88
			c8.38,12.84,17.29,25.27,26.61,37.44c6.99,9.13,9.6,20.17,11.14,31.41c0.42,3.09,0.6,6.22,1.24,9.26
			c0.86,4.1,8.08,6.31,11.27,3.53c1.39-1.21,1.32-2.9,1.15-4.53c-0.62-5.82-1.25-11.64-1.39-17.5c-0.06-2.67-1.46-4.18-3.69-5.57
			c-6.91-4.32-13.68-8.87-16.76-16.99c-1.67-4.39-2-9-1.98-13.61c0.01-3.38-1.21-5.64-4.29-7.17c-4.46-2.22-8.56-4.93-12.49-8.13
			c-5.19-4.24-7.12-9.57-7.16-15.73c-0.04-5.28-2.02-10.24-1.91-15.52c0.05-2.39-1.83-3.99-3.69-5.36
			c-4.67-3.44-8.91-7.22-10.99-12.91c-2.09-5.73-2.28-11.17,1.7-16.23C670.46,510.56,671.18,510.23,672.02,510.64z"/>
		<path class="st9" d="M785.3,570.63c-0.03-3.55-0.06-7.11-0.09-10.66c0.01-8.73-0.17-17.46,0.09-26.19
			c0.27-9.3,0.86-18.59,1.49-27.88c0.25-3.75,3.9-7.25,7.65-8.02c3.01-0.62,6.03-1.23,8.97-2.11c10.88-3.25,10.28-5.81,10.97-15.45
			c0.64-8.93,0.14-17.95,0.17-26.93c0.02-5.3,1.3-9.64,6.11-13.14c7.18-5.23,10.02-12.86,7.12-21.46
			c-2.23-6.64-11.05-14.85-20.52-12.53c-6.17,1.51-11.39,3.8-15.1,9.3c-6.06,8.97-0.43,22.64,8.35,26.13
			c6.18,2.46,7.94,4.91,7.94,11.48c0,8.73,0.04,17.46-0.03,26.19c-0.05,5.92-2.64,10.53-6.46,11.58c-2.39,0.66-4.82,1.3-7.28,1.6
			c-4.76,0.58-8.25,3.19-11.18,6.65c-3.39,4.01-4.24,3.96-8.32,0.45c-2.18-1.88-4.86-3.33-7.55-4.41c-3.18-1.28-6.61-1.96-9.94-2.86
			c-3.78-1.02-6.64-2.97-7.07-7.2c-0.51-5.05-1.07-10.11-1.26-15.18c-0.14-3.59,2.56-5.5,5.39-7c6.85-3.62,7.64-11.42,2.34-17
			c-8.17-8.6-19.46-2.6-21.75,7.16c-0.46,1.94,0.88,5.33,2.52,6.54c5.24,3.89,5.01,9.34,5.3,14.71c0.2,3.61-0.03,7.23,0.1,10.85
			c0.24,6.28,4.93,11.51,11.15,12.68c2.2,0.41,4.36,0.98,6.55,1.43c10.25,2.11,10.41,5.96,10.61,13.14
			c0.49,17.2,0.22,34.41,0.13,51.62c-0.03,6.28-3.81,11.01-9.86,12.38c-4.37,0.99-7.79,3.14-10.34,6.76
			c-0.59,0.41-1.16,0.48-1.68-0.12c0.52-4.45,3.92-6.36,7.37-8.16c1.21-0.64,2.63-0.8,3.91-1.29c4.89-1.87,7.96-5.28,8.01-10.63
			c0.16-16.59,0.27-33.18-0.04-49.77c-0.14-7.47-2.48-9.8-9.74-11.59c-3.14-0.77-6.41-0.99-9.39-2.45
			c-6.95-3.42-9.92-9.13-9.97-16.64c-0.03-4.24-0.05-8.48,0-12.72c0.03-2.65-0.87-4.78-2.63-6.76c-5.82-6.55-6.22-10.54-1.89-16.61
			c5.14-7.2,11.6-9.67,18.75-6.25c4.73,2.26,7.94,6.44,8.72,11.88c0.78,5.43-1.09,9.93-5.83,12.82c-3.39,2.06-4.78,4.78-4.59,8.68
			c0.18,3.61-0.01,7.22,0.92,10.78c0.73,2.8,2.32,4.68,5.18,5.29c2.57,0.55,5,1.65,7.57,2.1c3.82,0.67,7.16,2.17,9.93,4.87
			c1.86,1.82,3.5,1.79,5.52,0.06c4.83-4.13,10.38-6.76,16.71-7.9c4.91-0.89,6.61-2.89,6.74-7.94c0.25-9.98,0.11-19.96,0.07-29.94
			c-0.02-3.86-2.45-5.63-5.64-7.08c-7.89-3.57-11.89-10.28-12.91-18.42c-0.94-7.55,5.09-16.58,12.93-19.72
			c10.42-4.19,18.62-3.72,26.97,5.76c5.79,6.57,6.26,17.73,1.41,24.71c-1.65,2.38-3.49,4.63-5.84,6.28
			c-3.34,2.34-4.39,5.46-4.33,9.36c0.12,7.73-0.04,15.47,0.06,23.2c0.05,4.02-0.61,7.95-1.08,11.91c-0.51,4.27-2.77,7.32-6.65,9.32
			c-4.17,2.15-8.61,3.25-13.19,4.02c-5.05,0.85-6.84,2.67-7.85,7.65c-0.25,1.22-0.51,2.46-0.46,3.71
			c0.45,11.48-1.25,22.91-0.76,34.38c0.3,7.12-0.52,14.19-0.83,21.28C786.93,568.62,787.19,570.23,785.3,570.63z"/>
		<path class="st10" d="M749.89,583.22c0.54,0.02,1.08,0.03,1.62,0.05c-0.33,4.64-0.76,9.28-0.96,13.93
			c-0.26,5.95,0.02,11.94-0.59,17.84c-0.42,4-3.78,5.63-7.13,3.43c-5.8-3.8-11.41-7.97-16.64-12.52c-1.58-1.38-2.25-4.49-2.3-6.83
			c-0.23-11.59-0.15-23.19-0.11-34.79c0.02-5,3.72-7.25,7.39-9.47c7.45-4.5,14.26-10.04,15.1-19.14c0.68-7.37,2.59-13.11,8.87-17.42
			c1.24-0.85,1.5-4.18,1.08-6.13c-0.82-3.74-7.24-8.08-11.11-8.33c-5.42-0.35-10.19,0.3-14.08,4.97c-4.51,5.4-3.18,12.12,3.66,13.93
			c3.95,1.04,4.82,2.99,5.02,6.82c0.46,8.53-3.6,13.24-11.01,16.66c-4.76,2.2-8.94,5.76-13.16,9c-2.81,2.15-4.02,5.26-3.78,8.92
			c0.16,2.48,0.36,5.06-0.12,7.46c-0.39,1.92-1.4,4.7-2.81,5.2c-1.83,0.64-4.55-0.15-6.49-1.11c-7.4-3.68-9.43-10.34-9.36-18.02
			c0.04-4.24,0.15-8.49-0.03-12.72c-0.11-2.72,0.86-4.53,3.24-5.73c1.96-0.99,3.88-2.07,5.82-3.11c0.37,0.87-0.05,1.57-0.49,2.27
			c-5.94,2.93-6.33,8.11-6.07,13.89c0.18,4.12,0.49,8.21,0.99,12.28c0.6,4.86,4.28,7.48,8.18,9.54c2.26,1.19,3.81-0.33,4.37-2.6
			c0.48-1.95,0.43-4,0.22-5.96c-0.72-6.81,2.59-11.54,7.9-15.03c4.67-3.07,9.01-6.63,14.21-8.96c4.25-1.9,6.77-8.8,5.46-13.26
			c-0.58-1.97-2.21-2.57-3.83-3.23c-6.3-2.55-8.29-6.67-6.37-13.26c3.25-11.17,17.86-15.26,26.42-7.39c1.19,1.1,2.33,2.25,3.45,3.43
			c3.96,4.14,4.23,9.45-0.13,13.14c-4.18,3.54-6.38,7.25-6.4,12.98c-0.02,4.5-2.53,8.68-5.31,12.5c-3.76,5.16-8.41,9.12-13.96,12.18
			c-3.1,1.71-4.47,4.33-4.42,8.01c0.15,10.22,0.09,20.45,0.03,30.67c-0.02,3.92,1.48,7,4.49,9.41c3.79,3.05,7.45,6.28,11.78,8.58
			c3.27,1.73,5.03,1.03,5.43-2.66c0.53-4.95,0.58-9.96-0.11-14.92c-0.56-4-0.54-7.95,0.38-11.89
			C748.47,584.76,748.35,583.43,749.89,583.22z"/>
		<path class="st11" d="M701.27,537.58c0.25-0.49,0.5-0.99,0.74-1.48c3.48-3.26,7.9-5.73,8.63-11.18
			c1.05-7.86-0.93-14.68-7.46-19.39c-5.97-4.3-12.57-6.22-20-3.18c-4.51,1.84-8.23,4.45-11.16,8.29c-0.56,0.21-1.13,0.43-1.69,0.64
			c-0.29-0.61-0.3-1.26,0.07-1.78c4.31-6.12,9.61-10.47,17.55-11.16c9.77-0.85,16.75,3.68,22.39,10.85
			c5.65,7.18,3.98,20.66-3.11,26.33C705.56,536.86,703.83,538.59,701.27,537.58z"/>
		<path d="M732.07,689.64c8.74,0,17.48,0.06,26.22-0.01c25.7-0.22,51.39-0.51,77.09-0.74c4.77-0.04,5.92,1.12,5.33,5.68
			c-0.12,0.96-1.27,2.14-2.23,2.57c-2.4,1.08-4.99,2.22-4.37,5.2c0.64,3.11-0.99,7.77,4.63,8.41c0.78,0.09,2.01,1.72,1.93,2.54
			c-0.15,1.65-0.58,3.89-1.74,4.72c-3.73,2.7-5.5,6.74-3.87,10.99c0.36,0.94,1.27,2.1,2.15,2.35c3.95,1.08,2.81,3.53,1.65,5.79
			c-4.28,8.3-11.34,13.12-20.25,15.19c-5.14,1.2-9.43,3.07-12.86,7.46c-4.3,5.52-11.05,5.85-17.39,5.96
			c-12.98,0.23-25.97,0.15-38.96,0.03c-6.46-0.06-12.39-1.9-16.63-7.08c-3.23-3.95-7.37-5.37-12.19-6.34
			c-9.73-1.96-17.11-7.27-20.64-16.9c-0.38-1.03,0.08-2.9,0.85-3.72c4.49-4.8,4-10.24-1.46-13.57c-2.73-1.66-2.78-5.97,0.1-7.27
			c2.19-0.99,4.42-1.93,3.88-4.66c-0.65-3.27,2.31-8.07-3.87-9.37c-0.94-0.2-1.76-3.17-1.72-4.84c0.02-0.82,2.11-2.26,3.28-2.28
			C711.34,689.57,721.71,689.64,732.07,689.64z"/>
		<path class="st0" d="M701.27,537.58c10.92-4.64,12.25-10.79,10.93-20.64c-1-7.47-6.01-11.68-12.17-15.2
			c-6.71-3.83-13.56-3.29-19.78-0.04c-3.91,2.04-6.65,6.31-9.92,9.58c-6.01,8.43-1.62,19.2,5.73,25.25
			c1.72,1.41,3.76,2.49,5.26,4.09c1.22,1.3,2.38,3.07,2.64,4.76c0.73,4.86,1.01,9.79,1.44,14.7c0.54,6.12,1.17,12.08,7.28,15.76
			c4.43,2.67,8.36,6.25,12.93,8.59c3.04,1.56,3.57,3.53,3.91,6.42c0.63,5.35,0.88,10.95,2.75,15.9c2.74,7.28,9.5,11.28,15.86,15.15
			c2.58,1.57,3.69,3.26,3.86,6.17c0.33,5.67,0.83,11.34,1.55,16.97c0.62,4.88-1.02,7.03-5.94,7.06c-7.46,0.05-8.5-1.17-9.14-8.76
			c-1.06-12.57-3.94-24.72-10.65-35.55c-2.78-4.5-6.81-8.21-9.82-12.58c-9.18-13.33-19.24-26.11-26.19-40.86
			c-1.85-3.93-3.58-7.91-5.19-11.94c-2.56-6.39-5.43-12.71-7.35-19.3c-1.99-6.83-3.03-13.94-4.45-20.94
			c-0.39-1.94-0.63-3.9-0.93-5.86c-0.3-7.69-0.35-15.37,0.02-23.06c1.72-11.4,4.88-22.43,9.47-32.98c1.75-4.03,4.9-7.44,7.09-11.31
			c3.94-6.97,8.62-13.43,14.73-18.5c10.35-8.57,20.52-17.51,33.56-22.12c5.78-2.04,11.26-5.03,17.12-6.72
			c11.83-3.42,23.99-5.25,36.32-4.2c12.79,1.1,25.61,2.41,37.48,7.99c5.8,2.73,11.86,5.06,17.31,8.37c7.24,4.4,14.96,8.2,20.51,15.1
			c4.1,5.1,9.3,9.35,13.24,14.57c3.78,5.01,7.04,10.55,9.68,16.25c3.3,7.13,6.09,14.54,8.42,22.04c1.45,4.66,2.3,9.71,2.27,14.57
			c-0.07,10.78,0.05,21.69-1.63,32.28c-1.46,9.24-2.64,18.77-8.2,27.16c-3.83,5.79-5.58,12.9-8.8,19.15
			c-3.37,6.54-7.34,12.76-11.11,19.09c-2.83,4.74-5.55,9.57-8.67,14.11c-4.13,6.02-8.67,11.76-12.91,17.72
			c-1.92,2.7-3.49,5.63-5.31,8.4c-0.39,0.59-1.15,0.93-1.73,1.38c-0.1-0.66-0.32-1.32-0.27-1.96c0.32-4.31,0.54-8.64,1.15-12.92
			c0.22-1.53,1.17-3.21,2.29-4.3c2.2-2.15,4.65-4.1,7.19-5.85c3.16-2.18,3.88-5.24,3.84-8.74c-0.06-4.58-0.69-9.29,2.48-13.24
			c1.69-2.1,3.61-4.03,5.32-6.13c3.7-4.56,3.65-10.06,1.42-14.69c-2-4.17-6.24-6.67-11.49-7.21c-8.04-0.83-12.76,3.79-16.97,9.35
			c-2.26,2.99-1.07,10.15,1.79,13.27c1.01,1.1,1.96,2.35,3.19,3.15c6.38,4.14,5.39,12.86,2.93,18.27c-0.88,1.93-2.95,3.77-4.92,4.67
			c-5.27,2.4-7.77,6.22-7.82,11.91c-0.02,3.25,1.2,7.08-2.61,9.06c-3.93,2.05-7.83,0.16-10.85-1.92c-2.33-1.61-4.43-4.76-4.9-7.52
			c-0.67-3.97-1.54-8.46,1.74-12.13c0.72-0.81,1.14-1.92,1.58-2.94c1.98-4.65,0.97-8.29-2.8-10.27c-4.53-2.37-10.24-1.19-12.52,2.76
			c-1.81,3.13-1.58,6.39,1.04,8.86c2.72,2.56,3.43,5.45,3.43,9.03c0,3.53,0.32,7.2,1.35,10.55c1.31,4.27,4.62,6.87,9.11,7.93
			c5.17,1.22,5.91,2.26,5.9,7.36c-0.01,5.99,0.11,11.98-0.02,17.96c-0.07,3.08-0.35,6.19-0.96,9.2c-0.18,0.86-1.84,2.02-2.83,2.03
			c-10.37,0.15-20.73,0.11-31.1,0.07c-2.75-0.01-4.05-1.57-4.05-4.28c0-18.09-0.17-36.18,0.19-54.25c0.05-2.32,2.55-4.95,4.52-6.78
			c2.14-1.98,4.96-3.26,7.55-4.74c4.26-2.42,7.47-5.66,8.67-10.56c0.25-0.55,0.69-1.09,0.72-1.65c0.32-6.07,0.68-12.14,0.82-18.22
			c0.3-13.31,0.1-26.65,0.85-39.93c0.47-8.39,1.76-10.68,12.11-12.29c4.02-0.62,7.98-2.45,11.65-4.35c3.22-1.66,4.24-5.14,4.43-8.6
			c0.37-7.07,0.59-14.14,0.76-21.22c0.12-4.74,0.11-9.48,0.02-14.22c-0.06-3.26,1.24-5.52,3.83-7.59
			c9.15-7.3,11.51-13.97,8.91-24.82c-2-8.35-14.13-14.9-22.56-13.18c-6.44,1.31-11.56,4.09-15.56,9.21
			c-4.96,6.36-4.89,12.96-1.14,19.77c2.58,4.68,5.83,8.5,11.31,10.16c3.02,0.91,4.81,3.43,4.82,6.86
			c0.01,10.11,0.1,20.21,0.03,30.32c-0.03,5.37-2.14,7.73-7.52,8.82c-6.82,1.38-12.87,4.14-17.91,9.11c-0.71,0.7-3.44,0.68-3.97,0
			c-4.08-5.2-10.28-6.31-15.88-7.38c-8.09-1.56-8.59-4.38-9.58-12.18c-0.33-2.58,0.2-5.26-0.08-7.85c-0.39-3.52,1.73-5.4,4.25-6.8
			c6.23-3.46,8.41-10.16,5.09-16.41c-3.42-6.43-8.89-9.37-15.88-7.76c-5.86,1.35-8.9,6.16-11.02,11.29
			c-1.68,4.06,0.79,7.33,3.52,9.91c2.89,2.74,3.84,5.76,3.78,9.65c-0.08,5.57,0.51,11.15,0.69,16.73
			c0.16,5.1,7.25,10.45,11.04,11.39c2.27,0.56,4.6,0.93,6.89,1.41c9.25,1.93,10.15,5,10.32,12.82c0.36,16.46,0.13,32.94,0.07,49.41
			c-0.02,5.89-3.71,10.8-9.38,11.9c-5.14,1-8.34,4.08-10.86,8.28c-0.47,4.49-1.25,8.97-1.34,13.46c-0.11,5.19,0.69,10.41,0.54,15.6
			c-0.15,5.24-2.85,6.48-7.21,3.57c-4.42-2.95-8.94-5.85-12.89-9.36c-1.84-1.63-3.37-4.63-3.45-7.06
			c-0.35-11.71-0.37-23.45,0.05-35.16c0.08-2.22,2.16-5.28,4.17-6.35c6.33-3.36,11.38-8.02,15.25-13.8
			c2.73-4.07,4.6-8.76,4.09-13.93c-0.31-3.15,0.84-5.19,3.44-7.21c2.37-1.84,4.84-4.62,5.46-7.38c1.04-4.69-5.68-12.93-10.87-13.62
			c-6.07-0.8-12.13-0.8-16.75,4.68c-3.47,4.12-4.34,8.57-2.72,13.45c0.44,1.32,2.02,2.51,3.36,3.22c2.95,1.57,7.36,1.07,7.1,6.48
			c-0.28,5.82-1.72,10.38-7.36,13.5c-5.99,3.32-11.54,7.5-17.07,11.58c-2.73,2.02-3.72,5.14-3.51,8.63
			c0.15,2.48,0.36,5.05-0.11,7.46c-0.32,1.64-1.44,3.72-2.8,4.39c-1.12,0.55-3.28-0.4-4.7-1.19c-6.77-3.73-7.92-10.23-8.06-17.12
			c-0.07-3.24,0.2-6.5-0.02-9.72c-0.28-4.13,1.12-6.97,5.18-8.35C700.29,538.81,700.74,538.08,701.27,537.58z"/>
		<path class="st12" d="M653.89,473.28c-0.01,7.69-0.01,15.37-0.02,23.06C653.87,488.65,653.88,480.96,653.89,473.28z"/>
	</g>
</g>
</svg>